# xmcd
#
# Track frame offsets:
#	225
#	12821
#	26336
#	38668
#	49896
#	62921
#	78911
#	88146
#	101627
#	114956
#	130613
#	144367
#	160625
#	171355
#	187669
#	201279
#
# Disc length: 2880 seconds
#
# Revision: 1
# Processed by: cddbd v1.5.2PL0 Copyright (c) Steve Scherf et al.
# Submitted via: audiograbber 1.83.01
#
DISCID=c30b3d10
DTITLE=Lennart, Malte, Per-Olof o Klas - Instrumentalt på vårt sätt
DYEAR=2006
DGENRE=christian
TTITLE0=Låt mig vandra nära Dig 2,47
TTITLE1=Hörer du ej klokkeklangen 3,00
TTITLE2=På stromingt hav 2,44
TTITLE3=Frid, frid ljuvliga frid 2,29
TTITLE4=Let me be there 2,53
TTITLE5=Tro och vara trygg 3,33
TTITLE6=Det är saligt på Jesus få tro/ Nu är särlaregnets tid 2,03
TTITLE7=Skyddad i Guds hand 2,59
TTITLE8=Tänk om Han kom idag 2,57
TTITLE9=Via Dolorosa 3,28
TTITLE10=Någonstans bland alla skuggorna står Jesus 3,03
TTITLE11=Jesus, Jesus, Jesus 3,36
TTITLE12=Han tek ikkje glansen av livet 2,23
TTITLE13=Om jeg aldri så mirakler 3,37
TTITLE14=Jag älskar Dig Jesus 3,01
TTITLE15=Tänk när släkt och vänner 3,16
EXTD=
EXTT0=
EXTT1=
EXTT2=
EXTT3=
EXTT4=
EXTT5=
EXTT6=
EXTT7=
EXTT8=
EXTT9=
EXTT10=
EXTT11=
EXTT12=
EXTT13=
EXTT14=
EXTT15=
PLAYORDER=
